<!DOCTYPE svg PUBLIC "-//W3C//DTD SVG 1.1//EN" "http://www.w3.org/Graphics/SVG/1.1/DTD/svg11.dtd">
<!-- Uploaded to: SVG Repo, www.svgrepo.com, Transformed by: SVG Repo Mixer Tools -->
<svg fill="#0F0F0F" height="64px" width="64px" version="1.1" id="Layer_1" xmlns="http://www.w3.org/2000/svg" xmlns:xlink="http://www.w3.org/1999/xlink" viewBox="0 0 512.005 512.005" xml:space="preserve" stroke="#0F0F0F">
<g id="SVGRepo_bgCarrier" stroke-width="0"/>
<g id="SVGRepo_tracerCarrier" stroke-linecap="round" stroke-linejoin="round"/>
<g id="SVGRepo_iconCarrier"> <g> <g> <g> <path d="M3.585,150.503c6.536,9.803,19.781,12.452,29.584,5.917l30.833-20.555v24.138c0,11.782,9.551,21.333,21.333,21.333 c11.782,0,21.333-9.551,21.333-21.333v-24.138l30.833,20.555c9.803,6.536,23.048,3.886,29.584-5.917s3.886-23.048-5.917-29.584 l-37.374-24.916l37.374-24.916c9.803-6.536,12.452-19.781,5.917-29.584s-19.781-12.452-29.584-5.917l-30.833,20.555V32.002 c0-11.782-9.551-21.333-21.333-21.333c-11.782,0-21.333,9.551-21.333,21.333v24.138L33.169,35.585 c-9.803-6.536-23.048-3.887-29.584,5.917S-0.301,64.55,9.502,71.086l37.374,24.916L9.502,120.919 C-0.301,127.454-2.95,140.699,3.585,150.503z"/> <path d="M502.503,120.919l-37.374-24.916l37.374-24.916c9.803-6.536,12.452-19.781,5.917-29.584s-19.781-12.452-29.584-5.917 l-30.833,20.555V32.002c0-11.782-9.551-21.333-21.333-21.333s-21.333,9.551-21.333,21.333v24.138l-30.833-20.555 c-9.803-6.536-23.049-3.887-29.584,5.917s-3.886,23.049,5.917,29.584l37.374,24.916l-37.374,24.916 c-9.803,6.536-12.452,19.781-5.917,29.584s19.781,12.452,29.584,5.917l30.833-20.555v24.138c0,11.782,9.551,21.333,21.333,21.333 s21.333-9.551,21.333-21.333v-24.138l30.833,20.555c9.803,6.536,23.049,3.886,29.584-5.917S512.306,127.454,502.503,120.919z"/> <path d="M331.836,291.585l-37.374-24.916l37.374-24.916c9.803-6.536,12.452-19.781,5.917-29.584s-19.781-12.452-29.584-5.917 l-30.833,20.555v-24.138c0-11.782-9.551-21.333-21.333-21.333c-11.782,0-21.333,9.551-21.333,21.333v24.138l-30.833-20.555 c-9.803-6.536-23.049-3.886-29.584,5.917s-3.886,23.049,5.917,29.584l37.374,24.916l-37.374,24.916 c-9.803,6.536-12.452,19.781-5.917,29.584s19.781,12.452,29.584,5.917l30.833-20.555v24.138c0,11.782,9.551,21.333,21.333,21.333 c11.782,0,21.333-9.551,21.333-21.333v-24.138l30.833,20.555c9.803,6.536,23.049,3.886,29.584-5.917 S341.639,298.121,331.836,291.585z"/> <path d="M167.086,361.502c-6.536-9.803-19.781-12.452-29.584-5.917l-30.833,20.555v-24.138c0-11.782-9.551-21.333-21.333-21.333 c-11.782,0-21.333,9.551-21.333,21.333v24.138l-30.833-20.555c-9.803-6.536-23.048-3.886-29.584,5.917 c-6.536,9.803-3.886,23.049,5.917,29.584l37.374,24.916L9.502,440.919c-9.803,6.536-12.452,19.781-5.917,29.584 c6.536,9.803,19.781,12.452,29.584,5.917l30.833-20.555v24.138c0,11.782,9.551,21.333,21.333,21.333 c11.782,0,21.333-9.551,21.333-21.333v-24.138l30.833,20.555c9.803,6.536,23.048,3.886,29.584-5.917 c6.536-9.803,3.886-23.049-5.917-29.584l-37.374-24.916l37.374-24.916C170.972,384.551,173.622,371.305,167.086,361.502z"/> <path d="M508.419,361.502c-6.536-9.803-19.781-12.452-29.584-5.917l-30.833,20.555v-24.138c0-11.782-9.551-21.333-21.333-21.333 s-21.333,9.551-21.333,21.333v24.138l-30.833-20.555c-9.803-6.536-23.049-3.886-29.584,5.917 c-6.536,9.803-3.886,23.049,5.917,29.584l37.374,24.916l-37.374,24.916c-9.803,6.536-12.452,19.781-5.917,29.584 c6.536,9.803,19.781,12.452,29.584,5.917l30.833-20.555v24.138c0,11.782,9.551,21.333,21.333,21.333s21.333-9.551,21.333-21.333 v-24.138l30.833,20.555c9.803,6.536,23.049,3.886,29.584-5.917c6.536-9.803,3.886-23.049-5.917-29.584l-37.374-24.916 l37.374-24.916C512.306,384.551,514.955,371.305,508.419,361.502z"/> </g> </g> </g> </g>
</svg>